<svg version="1.1" id="Layer_1" xmlns="http://www.w3.org/2000/svg" x="0px" y="0px" width="164px" height="130px"
viewBox="0 0 164 130" enable-background="new 0 0 164 130">
    <path fill="#222222" d="M112.883,105.281c-11.873,15.418-30.338,25.096-50.875,24.561c-34.692-0.91-62.022-30.674-61.084-66.488
        C1.863,27.529,30.713-0.753,65.408,0.159c20.125,0.529,37.801,10.759,48.862,26.287L94.104,37.126
        c-7.178-8.375-17.596-13.778-29.295-14.085c-22.429-0.591-41.123,17.73-41.729,40.891c-0.611,23.195,17.101,42.431,39.53,43.023
        c12.559,0.326,23.915-5.23,31.598-14.262L112.883,105.281z"/>
    <path fill="#0ECBB7" stroke="#0AF3DB" stroke-width="0.25" stroke-miterlimit="10" d="M94.207,92.693
        c-7.684,9.031-19.04,14.588-31.598,14.262c-22.43-0.592-40.142-19.828-39.53-43.023c0.606-23.16,19.301-41.481,41.729-40.891
        c11.699,0.307,22.118,5.71,29.295,14.085L73.072,48.234c-2.611-1.527-5.638-2.467-8.859-2.554
        c-10.333-0.271-18.931,8.146-19.211,18.827c-0.279,10.682,7.865,19.538,18.199,19.809c4.642,0.119,8.883-1.51,12.239-4.26
        L94.207,92.693z"/>
    <path fill="#FFFFFF" d="M144.256,11.607H164v114.76h-19.744L75.44,80.057c-3.282,2.881-7.087,4.385-11.731,4.385
        c-10.335,0-18.71-8.77-18.71-19.611c0-10.84,8.375-19.607,18.71-19.607c3.222,0,6.274,0.873,8.924,2.35L144.256,11.607z"/>
    <g>
        <path d="M94.143,57.076l2.182,0.284c-0.238,1.504-0.848,2.683-1.83,3.533s-2.189,1.276-3.621,1.276
            c-1.791,0-3.232-0.586-4.322-1.758c-1.09-1.171-1.635-2.851-1.635-5.038c0-1.414,0.234-2.651,0.703-3.712
            s1.182-1.856,2.141-2.387c0.957-0.53,2-0.795,3.127-0.795c1.422,0,2.586,0.359,3.49,1.079c0.904,0.719,1.484,1.741,1.738,3.064
            l-2.158,0.333c-0.205-0.88-0.568-1.542-1.092-1.985c-0.521-0.444-1.152-0.666-1.893-0.666c-1.119,0-2.027,0.4-2.727,1.202
            c-0.697,0.802-1.047,2.07-1.047,3.805c0,1.76,0.336,3.038,1.01,3.836c0.676,0.798,1.555,1.196,2.641,1.196
            c0.871,0,1.6-0.268,2.182-0.802C93.615,59.008,93.986,58.186,94.143,57.076z"/>
        <path d="M98.236,46.346v-2.554h2.221v2.554H98.236z M98.236,61.874V48.776h2.221v13.098H98.236z"/>
        <path d="M103.836,61.874V48.776h1.998v1.862c0.963-1.439,2.352-2.158,4.17-2.158c0.789,0,1.514,0.142,2.176,0.425
            c0.662,0.284,1.158,0.656,1.486,1.116c0.328,0.461,0.559,1.008,0.691,1.641c0.082,0.411,0.123,1.131,0.123,2.158v8.054h-2.221
            v-7.968c0-0.904-0.086-1.58-0.258-2.028c-0.174-0.448-0.48-0.806-0.92-1.073c-0.439-0.267-0.955-0.4-1.547-0.4
            c-0.947,0-1.762,0.3-2.449,0.9c-0.686,0.6-1.029,1.738-1.029,3.416v7.153H103.836z"/>
        <path d="M126.85,57.656l2.295,0.283c-0.361,1.341-1.031,2.381-2.01,3.12c-0.979,0.74-2.229,1.11-3.75,1.11
            c-1.916,0-3.436-0.59-4.557-1.77c-1.123-1.18-1.684-2.835-1.684-4.965c0-2.203,0.566-3.913,1.701-5.13s2.607-1.825,4.416-1.825
            c1.752,0,3.182,0.596,4.291,1.788c1.111,1.192,1.666,2.869,1.666,5.032c0,0.131-0.004,0.328-0.012,0.592h-9.77
            c0.082,1.438,0.49,2.54,1.223,3.305c0.73,0.765,1.643,1.147,2.736,1.147c0.814,0,1.51-0.214,2.086-0.642
            C126.057,59.276,126.514,58.593,126.85,57.656z M119.563,54.067h7.313c-0.098-1.103-0.379-1.929-0.838-2.479
            c-0.707-0.854-1.625-1.282-2.75-1.282c-1.02,0-1.877,0.341-2.572,1.023S119.635,52.923,119.563,54.067z"/>
    </g>
    <g>
        <path fill="#0ECBB7" d="M92.664,79.602l2.184,0.283c-0.238,1.506-0.85,2.684-1.832,3.535s-2.189,1.277-3.621,1.277
            c-1.793,0-3.234-0.586-4.324-1.758s-1.635-2.854-1.635-5.041c0-1.414,0.234-2.652,0.703-3.713
            c0.469-1.063,1.182-1.857,2.141-2.389c0.957-0.529,2-0.795,3.127-0.795c1.424,0,2.588,0.359,3.492,1.078
            c0.904,0.721,1.484,1.742,1.74,3.066l-2.16,0.334c-0.205-0.881-0.568-1.543-1.092-1.986c-0.521-0.445-1.154-0.666-1.895-0.666
            c-1.117,0-2.027,0.4-2.727,1.203c-0.699,0.801-1.049,2.07-1.049,3.805c0,1.762,0.338,3.041,1.012,3.838
            c0.676,0.799,1.555,1.197,2.641,1.197c0.873,0,1.6-0.268,2.184-0.803C92.137,81.535,92.508,80.711,92.664,79.602z"/>
        <path fill="#0ECBB7" d="M105.299,82.785c-0.822,0.699-1.615,1.191-2.375,1.48c-0.762,0.287-1.578,0.432-2.449,0.432
            c-1.439,0-2.547-0.352-3.318-1.055c-0.773-0.703-1.16-1.602-1.16-2.697c0-0.641,0.145-1.227,0.438-1.758
            c0.291-0.529,0.674-0.955,1.146-1.277c0.475-0.32,1.006-0.563,1.6-0.727c0.436-0.115,1.094-0.227,1.973-0.334
            c1.793-0.213,3.113-0.469,3.961-0.766c0.008-0.303,0.012-0.496,0.012-0.578c0-0.906-0.209-1.543-0.629-1.914
            c-0.566-0.502-1.41-0.752-2.529-0.752c-1.045,0-1.814,0.184-2.313,0.549c-0.498,0.367-0.865,1.014-1.105,1.943l-2.17-0.297
            c0.197-0.928,0.521-1.68,0.975-2.25c0.451-0.572,1.105-1.012,1.961-1.32s1.846-0.463,2.975-0.463
            c1.117,0,2.027,0.131,2.727,0.395s1.213,0.594,1.541,0.992c0.33,0.4,0.561,0.904,0.691,1.512
            c0.074,0.379,0.111,1.063,0.111,2.049v2.961c0,2.064,0.047,3.371,0.143,3.918c0.094,0.547,0.281,1.07,0.561,1.572h-2.32
            C105.512,83.939,105.365,83.402,105.299,82.785z M105.113,77.824c-0.807,0.33-2.016,0.609-3.627,0.84
            c-0.914,0.131-1.559,0.279-1.938,0.443s-0.67,0.406-0.875,0.723c-0.207,0.316-0.309,0.668-0.309,1.055
            c0,0.592,0.223,1.086,0.672,1.48c0.447,0.395,1.104,0.592,1.969,0.592c0.854,0,1.615-0.188,2.281-0.561
            c0.666-0.375,1.156-0.887,1.469-1.537c0.238-0.502,0.357-1.242,0.357-2.221V77.824z"/>
        <path fill="#0ECBB7" d="M110.752,84.4V66.313h2.221V84.4H110.752z"/>
        <path fill="#0ECBB7" d="M116.428,68.867v-2.555h2.221v2.555H116.428z M116.428,84.4V71.297h2.221V84.4H116.428z"/>
        <path fill="#0ECBB7" d="M130.531,84.4v-1.652c-0.832,1.299-2.053,1.949-3.666,1.949c-1.043,0-2.004-0.289-2.881-0.863
            c-0.875-0.576-1.555-1.381-2.035-2.412c-0.48-1.033-0.723-2.219-0.723-3.561c0-1.309,0.219-2.494,0.654-3.559
            c0.436-1.066,1.09-1.883,1.963-2.449c0.871-0.568,1.846-0.852,2.924-0.852c0.789,0,1.492,0.166,2.109,0.5
            c0.617,0.332,1.119,0.766,1.506,1.301v-6.49h2.209V84.4H130.531z M123.51,77.861c0,1.678,0.354,2.934,1.061,3.764
            c0.709,0.83,1.543,1.246,2.506,1.246c0.971,0,1.795-0.396,2.473-1.191c0.68-0.793,1.02-2.004,1.02-3.633
            c0-1.793-0.346-3.109-1.037-3.949c-0.691-0.838-1.543-1.258-2.555-1.258c-0.986,0-1.811,0.402-2.473,1.209
            S123.51,76.127,123.51,77.861z"/>
        <path fill="#0ECBB7" d="M144.633,82.785c-0.822,0.699-1.613,1.191-2.375,1.48c-0.76,0.287-1.576,0.432-2.449,0.432
            c-1.439,0-2.545-0.352-3.318-1.055s-1.16-1.602-1.16-2.697c0-0.641,0.146-1.227,0.438-1.758
            c0.293-0.529,0.676-0.955,1.148-1.277c0.473-0.32,1.006-0.563,1.598-0.727c0.436-0.115,1.094-0.227,1.975-0.334
            c1.793-0.213,3.113-0.469,3.961-0.766c0.008-0.303,0.012-0.496,0.012-0.578c0-0.906-0.209-1.543-0.629-1.914
            c-0.568-0.502-1.412-0.752-2.529-0.752c-1.045,0-1.816,0.184-2.314,0.549c-0.498,0.367-0.865,1.014-1.104,1.943l-2.172-0.297
            c0.197-0.928,0.521-1.68,0.975-2.25c0.453-0.572,1.107-1.012,1.963-1.32s1.846-0.463,2.973-0.463
            c1.119,0,2.027,0.131,2.727,0.395s1.213,0.594,1.543,0.992c0.328,0.4,0.559,0.904,0.691,1.512
            c0.072,0.379,0.109,1.063,0.109,2.049v2.961c0,2.064,0.049,3.371,0.143,3.918s0.281,1.07,0.563,1.572h-2.32
            C144.848,83.939,144.699,83.402,144.633,82.785z M144.449,77.824c-0.807,0.33-2.016,0.609-3.629,0.84
            c-0.912,0.131-1.559,0.279-1.936,0.443c-0.379,0.164-0.672,0.406-0.877,0.723s-0.309,0.668-0.309,1.055
            c0,0.592,0.225,1.086,0.672,1.48c0.449,0.395,1.105,0.592,1.969,0.592c0.855,0,1.617-0.188,2.283-0.561
            c0.666-0.375,1.154-0.887,1.467-1.537c0.24-0.502,0.359-1.242,0.359-2.221V77.824z"/>
        <path fill="#0ECBB7" d="M158.637,84.4v-1.652c-0.83,1.299-2.053,1.949-3.664,1.949c-1.045,0-2.006-0.289-2.881-0.863
            c-0.877-0.576-1.555-1.381-2.035-2.412c-0.482-1.033-0.723-2.219-0.723-3.561c0-1.309,0.217-2.494,0.654-3.559
            c0.436-1.066,1.09-1.883,1.961-2.449c0.873-0.568,1.848-0.852,2.924-0.852c0.791,0,1.494,0.166,2.111,0.5
            c0.617,0.332,1.117,0.766,1.504,1.301v-6.49h2.209V84.4H158.637z M151.617,77.861c0,1.678,0.354,2.934,1.061,3.764
            s1.543,1.246,2.504,1.246c0.971,0,1.795-0.396,2.475-1.191c0.678-0.793,1.018-2.004,1.018-3.633
            c0-1.793-0.346-3.109-1.037-3.949c-0.689-0.838-1.541-1.258-2.553-1.258c-0.988,0-1.813,0.402-2.475,1.209
            S151.617,76.127,151.617,77.861z"/>
    </g>
</svg>
